<svg viewBox="0 0 100 100" xmlns="http://www.w3.org/2000/svg"><path d="M42 70q-7 13-11 21" stroke="#a8623a" stroke-width="9" fill="none" stroke-linecap="round"></path>
    <path d="M58 70q8 9 6 23" stroke="#a8623a" stroke-width="9" fill="none" stroke-linecap="round"></path>
    <path d="M38 50q-13 4-17 16" stroke="#a8623a" stroke-width="8" fill="none" stroke-linecap="round"></path>
    <path d="M62 50q11 1 15-7" stroke="#a8623a" stroke-width="8" fill="none" stroke-linecap="round"></path>
    <path d="M38 46c0-10 5-16 12-16s12 6 12 16v18c0 5-5 8-12 8s-12-3-12-8V46z" fill="#a8623a"></path>
    <circle cx="38" cy="14" r="5.5" fill="#a8623a"></circle><circle cx="62" cy="14" r="5.5" fill="#a8623a"></circle>
    <circle cx="50" cy="24" r="16" fill="#a8623a"></circle>
    <ellipse cx="50" cy="27" rx="9.5" ry="7.5" fill="#f2e4d0"></ellipse>
    <circle cx="46" cy="26" r="1.6" fill="#3a2a1c"></circle><circle cx="54" cy="26" r="1.6" fill="#3a2a1c"></circle>
    <path d="M46 31q4 3 8 0" stroke="#3a2a1c" stroke-width="1.4" fill="none" stroke-linecap="round"></path>
    <path d="M10 58h9M8 66h8" stroke="#caa06a" stroke-width="2.5" fill="none" stroke-linecap="round"></path></svg>