<svg viewBox="0 0 100 100" xmlns="http://www.w3.org/2000/svg"><ellipse cx="50" cy="87" rx="30" ry="7" fill="#e6dccb"></ellipse>
    <path d="M28 82c-3-20 6-34 22-34s25 14 22 34c-1 6-9 9-22 9s-21-3-22-9z" fill="#a8623a"></path>
    <path d="M34 66q-10 6-16 16" stroke="#a8623a" stroke-width="8" fill="none" stroke-linecap="round"></path>
    <path d="M66 66q9 5 11 12" stroke="#a8623a" stroke-width="8" fill="none" stroke-linecap="round"></path>
    <circle cx="36" cy="28" r="6.5" fill="#a8623a"></circle><circle cx="64" cy="28" r="6.5" fill="#a8623a"></circle>
    <circle cx="50" cy="40" r="18" fill="#a8623a"></circle>
    <ellipse cx="50" cy="44" rx="11" ry="9" fill="#f2e4d0"></ellipse>
    <circle cx="45.5" cy="42" r="1.8" fill="#3a2a1c"></circle><circle cx="54.5" cy="42" r="1.8" fill="#3a2a1c"></circle>
    <path d="M45 48q5 4 10 0" stroke="#3a2a1c" stroke-width="1.6" fill="none" stroke-linecap="round"></path>
    <circle cx="17" cy="83" r="5" fill="#caa06a"></circle><circle cx="26" cy="87" r="3.5" fill="#caa06a"></circle></svg>